# xmcd
#
# Track frame offsets:
#	150
#	18375
#	31200
#	55425
#	71025
#	91725
#	123483
#	140175
#	165225
#	170800
#	193875
#	207300
#	226200
#	249075
#	262350
#	278709
#	291317
#	306459
#	324749
#
# Disc length: 4485 seconds
#
# Revision: 0
# Processed by: cddbd v1.5.2PL0 Copyright (c) Steve Scherf et al.
# Submitted via: dBpowerAMP V4.0
#
DISCID=28118313
DTITLE=Luis Eduardo Aute - Auterretratos Vol. 3
DYEAR=2009
DGENRE=Cantaautor
TTITLE0=01- luis eduardo aute - me va la vida en ello
TTITLE1=02- luis eduardo aute - de la luz y la sombra
TTITLE2=03- luis eduardo aute - imaginacion
TTITLE3=04- luis eduardo aute - jacques
TTITLE4=05- luis eduardo aute - invisible
TTITLE5=06- luis eduardo aute - siglo xxi
TTITLE6=07- luis eduardo aute - cinco minutos
TTITLE7=08- luis eduardo aute - aleluya 5
TTITLE8=09- luis eduardo aute - la gallina de los huevos de oro
TTITLE9=10- luis eduardo aute - triptico de luces y sombras
TTITLE10=11- luis eduardo aute - sinvivir
TTITLE11=12- luis eduardo aute - sigo a la mar
TTITLE12=13- luis eduardo aute - no digas nunca jamas
TTITLE13=14- luis eduardo aute - hembra mia
TTITLE14=15- luis eduardo aute - che, que mal
TTITLE15=16- luis eduardo aute - cuando dos cuerpos
TTITLE16=17- luis eduardo aute - el viento, el tiempo
TTITLE17=18- luis eduardo aute - pasa un avion
TTITLE18=19- luis eduardo aute - petalo
EXTD=
EXTT0=
EXTT1=
EXTT2=
EXTT3=
EXTT4=
EXTT5=
EXTT6=
EXTT7=
EXTT8=
EXTT9=
EXTT10=
EXTT11=
EXTT12=
EXTT13=
EXTT14=
EXTT15=
EXTT16=
EXTT17=
EXTT18=
PLAYORDER=
